<svg xmlns="http://www.w3.org/2000/svg" width="16" height="16" fill="none"><path fill="currentColor" fill-rule="evenodd" d="M12.022 12.5V3.828l1.01 1.01a.5.5 0 0 0 .707 0l.707-.706a.5.5 0 0 0 0-.707L11.376.354a.5.5 0 0 0-.708 0l-3.071 3.07a.5.5 0 0 0 0 .708l.707.707a.5.5 0 0 0 .707 0l1.01-1.01V12.5a.5.5 0 0 0 .5.5h1a.5.5 0 0 0 .5-.5m-8.044-9v8.672l-1.01-1.01a.5.5 0 0 0-.707 0l-.707.706a.5.5 0 0 0 0 .707l3.07 3.071a.5.5 0 0 0 .708 0l3.07-3.07a.5.5 0 0 0 0-.708l-.706-.707a.5.5 0 0 0-.707 0l-1.01 1.01V3.5a.5.5 0 0 0-.5-.5h-1a.5.5 0 0 0-.5.5" clip-rule="evenodd"/></svg>