<svg xmlns="http://www.w3.org/2000/svg" width="24" height="24" fill="none"><path fill="currentColor" fill-rule="evenodd" d="M20 18.5v-5.014c0-.357-.059-.702-.168-1.025l-1.403-5.33a2.56 2.56 0 0 0-2.195-1.893C14.79 5.079 14.045 5 12 5s-2.79.08-4.233.238A2.56 2.56 0 0 0 5.57 7.13l-1.403 5.33c-.107.324-.167.67-.167 1.026V18.5a.5.5 0 0 0 .5.5h2.11a.5.5 0 0 0 .485-.379L7.5 17h9l.405 1.621a.5.5 0 0 0 .486.379h2.11a.5.5 0 0 0 .499-.5m-4.2-12c.624.09 1.173.53 1.337 1.154L18 10.7c-.318-.169-1.026-.326-1.401-.378C15.058 10.107 13.978 10 12 10s-3.056.107-4.597.322c-.375.052-1.085.209-1.403.378l.862-3.046C7.026 7.029 7.576 6.59 8.2 6.5c1.404-.201 1.79-.232 3.8-.232 2.011 0 2.395.031 3.8.232m1.7 8.5a1.5 1.5 0 1 0 0-3 1.5 1.5 0 0 0 0 3M8 13.5a1.5 1.5 0 1 1-3 0 1.5 1.5 0 0 1 3 0" clip-rule="evenodd"/><path fill="#000" d="M21.5 9a.5.5 0 0 1 .5.5v.408a1 1 0 0 1-.886.993l-.428.05a.5.5 0 0 1-.542-.376l-.238-.954A.498.498 0 0 1 20.39 9zm-19 0a.5.5 0 0 0-.5.5v.408a1 1 0 0 0 .886.993l.428.05a.5.5 0 0 0 .542-.376l.239-.954A.5.5 0 0 0 3.61 9z"/></svg>