<svg xmlns="http://www.w3.org/2000/svg" width="24" height="24" fill="none"><rect width="2.5" height="2.5" x="10.75" y="15.5" fill="#FF5E5E" rx="1"/><path fill="#FF5E5E" d="M12 6c-.591 0-1.251.058-1.192.75l.692 7.75c.022.256.241.27.46.27h.08c.219 0 .438-.014.46-.27l.736-7.75C13.297 6.059 12.593 6 12 6"/><path stroke="#FF5E5E" stroke-width="2" d="M5.714 9.51C8.52 4.502 9.925 2 12 2s3.479 2.503 6.286 7.51l.715 1.274c2.396 4.272 3.594 6.408 2.707 8.16s-3.13 1.838-7.616 2.011c-.73.029-1.436.045-2.092.045s-1.362-.016-2.092-.045c-4.486-.173-6.729-.26-7.616-2.011s.311-3.888 2.707-8.16z"/></svg>