<svg xmlns="http://www.w3.org/2000/svg" width="24" height="24" fill="none"><path fill="currentColor" fill-rule="evenodd" d="M19 11v8.5a.5.5 0 0 1-.5.5h-2.11a.5.5 0 0 1-.485-.379L15.5 18h-7l-.405 1.621A.5.5 0 0 1 7.61 20H5.5a.5.5 0 0 1-.5-.5V11l-.724-.362A.5.5 0 0 1 4 10.191V8a1 1 0 0 1 1-1v-.612a2 2 0 0 1 1.382-1.902C7.411 4.152 9.255 4 12 4s4.59.152 5.618.486A2 2 0 0 1 19 6.388V7a1 1 0 0 1 1 1v2.191a.5.5 0 0 1-.276.447zm-7-5q-3.38 0-5.12.715a1 1 0 0 0-.617.86L6 11.618a.5.5 0 0 0 .424.494Q7.642 12.3 12 12.3t5.576-.188a.5.5 0 0 0 .424-.494l-.263-4.043a1 1 0 0 0-.617-.86Q15.38 6 12 6m4.5 11a1.5 1.5 0 1 0 0-3 1.5 1.5 0 0 0 0 3m-9 0a1.5 1.5 0 1 0 0-3 1.5 1.5 0 0 0 0 3" clip-rule="evenodd"/></svg>