<svg xmlns="http://www.w3.org/2000/svg" width="24" height="24" fill="none"><path fill="currentColor" d="M7 3a2 2 0 0 0-2 2v2.517a.2.2 0 0 0 .341.142l.366-.366A1 1 0 0 1 6.414 7h11.172a1 1 0 0 1 .707.293l.366.366A.2.2 0 0 0 19 7.517V5a2 2 0 0 0-2-2z"/><path fill="currentColor" fill-rule="evenodd" d="M7 8a1 1 0 0 0-1 1v4l-.414.414A2 2 0 0 0 5 14.828V16h2a1 1 0 0 1 1 1v.7a.3.3 0 0 1-.3.3H5v2.25c0 .414.256.75.571.75h2.411c.263 0 .491-.234.555-.568L8.81 19h6.38l.273 1.432c.064.334.292.568.555.568h2.41c.316 0 .572-.336.572-.75V18h-2.7a.3.3 0 0 1-.3-.3V17a1 1 0 0 1 1-1h2v-1.172a2 2 0 0 0-.586-1.414L18 13V9a1 1 0 0 0-1-1zm.46 1h9.04c.5 0 .5.384.5.776V12.2c0 .168 0 .313-.247.432-.76.368-1.82.368-4.747.368h-.012c-2.927 0-4.057 0-4.752-.368C7 12.505 7 12.368 7 12.2V9.8c0-.4 0-.8.46-.8" clip-rule="evenodd"/><path fill="currentColor" d="M3.474 9C3.212 9 3 9.19 3 9.426V12.2c0 .187.193.358.498.442l.884.21a.5.5 0 0 0 .615-.489L4.986 9.53c0-.175-.061-.341-.185-.44l-.061-.04A.45.45 0 0 0 4.526 9zM21 9.426C21 9.19 20.788 9 20.526 9h-1.052a.45.45 0 0 0-.213.05l-.062.04c-.124.098-.185.264-.185.44l-.011 2.834a.5.5 0 0 0 .615.489l.884-.21c.305-.084.498-.255.498-.442z"/></svg>