<svg xmlns="http://www.w3.org/2000/svg" width="24" height="24" fill="none"><path fill="currentColor" d="M14 4.5a1.5 1.5 0 1 1-3 0 1.5 1.5 0 0 1 3 0m.836 10.633q.075.099.11.217l1.4 4.734a.716.716 0 0 1-.516.889.76.76 0 0 1-.909-.447l-1.672-4.413-2.815-2.707a1.01 1.01 0 0 1-.29-.93l.6-3.292-1.352.385L8.2 12.233a.635.635 0 0 1-.82.32.593.593 0 0 1-.34-.766l1.2-3.007a.63.63 0 0 1 .309-.332l.077-.037 3.008-1.478.021-.008.015-.005a.94.94 0 0 1 .6-.089c.269.05.5.199.615.425s.154.641.154.641c.046.256.062.508.078.76q.06.709.039 1.42c-.021.72-.07 1.434-.17 2.141l-.053.418 1.833 2.407.068.091z"/><path fill="currentColor" d="m14.12 9.253 2.643 2.276c.27.206.316.583.103.843a.644.644 0 0 1-.858.114l-2.128-1.482.023-.129.028-.158.074-.407.026-.145.025-.142.017-.23.025-.29.01-.12zm-3.956 5.146c.209.2.44.405.674.609.37.326.75.64 1.085.895-.142.287-.38.76-.38.76l-2.538 3.992a.77.77 0 0 1-1.031.24.707.707 0 0 1-.278-.943l2.117-3.99.029-.277q.032-.338.077-.675l.11-.736.065.06z"/></svg>